# File created by Blade
# Date/Time:  Wed Jan 21 14:55:15 2015
# Frame Rate: 120.000 fps
#------------------------------------------------------
:FULLY-SPECIFIED
:DEGREES
687
root 19.901243 17.252647 -19.835606 -94.938624 80.662095 -126.038406
Spine 36.471219 -4.571106 7.900867
Head -4.026159 -2.393508 -0.740766
LeftShoulder -15.604854 -41.385080 24.336567
LeftArm -30.006735 -2.853806 -14.568686
LeftForeArm -7.105944 -0.000000 1.208749
LeftHand -12.356552 0.000000 3.908733
LeftHandThumb1 -26.253704 0.000000 33.147579
RightShoulder -9.695224 3.880547 -17.804311
RightArm -19.431813 41.051567 20.507868
RightForeArm -30.094487 0.000000 11.391960
RightHand -14.842076 -0.000000 -5.303197
RightHandThumb1 -24.326973 -0.000000 -32.862282
LeftUpLeg -1.481676 13.391237 5.502075
LeftLeg 72.208143 -0.000000 -0.000000
LeftFoot -19.384497 14.596206 -13.555449
LeftToeBase -74.343712 -0.000000 0.000000
RightUpLeg -118.577292 16.248301 7.871931
RightLeg 111.865090 -0.000000 -0.000000
RightFoot -42.265575 -26.195065 14.346884
RightToeBase 22.106708 -0.000000 -0.000000
688
root 19.898038 17.255702 -19.829813 -94.690285 80.651813 -125.690568
Spine 36.391503 -4.557323 7.920621
Head -3.995760 -2.427196 -0.801941
LeftShoulder -15.613496 -41.398070 24.286484
LeftArm -29.962891 -2.861099 -14.534845
LeftForeArm -7.175408 -0.000000 1.185082
LeftHand -12.303972 0.000000 3.854909
LeftHandThumb1 -26.253704 0.000000 33.147579
RightShoulder -9.706293 3.874477 -17.832235
RightArm -19.436305 41.129120 20.494494
RightForeArm -30.100133 -0.000000 11.370306
RightHand -14.713638 0.000000 -5.382603
RightHandThumb1 -24.326973 -0.000000 -32.862282
LeftUpLeg -1.385170 13.438606 5.552242
LeftLeg 72.217310 -0.000000 -0.000000
LeftFoot -19.392205 14.599431 -13.515028
LeftToeBase -74.320451 -0.000000 0.000000
RightUpLeg -118.464944 16.300525 7.900569
RightLeg 111.827297 -0.000000 -0.000000
RightFoot -42.246186 -26.194281 14.354911
RightToeBase 22.172330 -0.000000 -0.000000
689
root 19.893652 17.259246 -19.825400 -94.578938 80.643833 -125.502067
Spine 36.259219 -4.559220 7.938200
Head -3.945607 -2.418430 -0.840267
LeftShoulder -15.621462 -41.359206 24.239002
LeftArm -29.902493 -2.806504 -14.578095
LeftForeArm -7.224769 -0.000000 1.178966
LeftHand -12.345604 -0.000000 3.896609
LeftHandThumb1 -26.253704 0.000000 33.147579
RightShoulder -9.699156 3.832608 -17.827539
RightArm -19.436313 41.234650 20.452087
RightForeArm -30.148300 0.000000 11.332110
RightHand -14.690312 0.000000 -5.459847
RightHandThumb1 -24.326973 -0.000000 -32.862282
LeftUpLeg -1.329687 13.469287 5.592828
LeftLeg 72.244664 -0.000000 -0.000000
LeftFoot -19.369378 14.588404 -13.546620
LeftToeBase -74.584554 -0.000000 0.000000
RightUpLeg -118.383214 16.326561 7.919474
RightLeg 111.811037 -0.000000 -0.000000
RightFoot -42.219458 -26.136042 14.396243
RightToeBase 22.164433 -0.000000 -0.000000
690
root 19.888893 17.263263 -19.821069 -94.529120 80.640796 -125.350294
Spine 36.154818 -4.557138 7.962663
Head -3.928990 -2.412479 -0.898368
LeftShoulder -15.624815 -41.408556 24.205795
LeftArm -29.872788 -2.802508 -14.544225
LeftForeArm -7.150030 -0.000000 1.212620
LeftHand -12.422595 -0.000000 3.898375
LeftHandThumb1 -26.253704 0.000000 33.147579
RightShoulder -9.697518 3.729693 -17.817106
RightArm -19.401276 41.152333 20.485739
RightForeArm -29.932746 0.000000 11.355786
RightHand -14.630582 -0.000000 -5.458952
RightHandThumb1 -24.326973 -0.000000 -32.862282
LeftUpLeg -1.248857 13.484912 5.628129
LeftLeg 72.276662 -0.000000 -0.000000
LeftFoot -19.355900 14.610787 -13.524519
LeftToeBase -74.132913 -0.000000 0.000000
RightUpLeg -118.266977 16.345687 7.934201
RightLeg 111.761131 -0.000000 -0.000000
RightFoot -42.200146 -26.168112 14.370108
RightToeBase 22.180359 -0.000000 -0.000000
691
root 19.883426 17.265731 -19.818374 -94.687862 80.650034 -125.431622
Spine 35.984896 -4.612455 7.956438
Head -3.854392 -2.386626 -0.975126
LeftShoulder -15.596644 -41.387728 24.134226
LeftArm -29.863247 -2.848819 -14.469832
LeftForeArm -7.094835 -0.000000 1.253058
LeftHand -12.423375 -0.000000 3.919353
LeftHandThumb1 -26.253704 0.000000 33.147579
RightShoulder -9.721655 3.639003 -17.841300
RightArm -19.329773 41.434995 20.483903
RightForeArm -30.149781 -0.000000 11.307846
RightHand -14.679578 -0.000000 -5.436034
RightHandThumb1 -24.326973 -0.000000 -32.862282
LeftUpLeg -1.204026 13.458835 5.634470
LeftLeg 72.312827 -0.000000 -0.000000
LeftFoot -19.342191 14.612218 -13.541100
LeftToeBase -74.384951 -0.000000 0.000000
RightUpLeg -118.206388 16.331304 7.924620
RightLeg 111.762493 -0.000000 -0.000000
RightFoot -42.160892 -26.097050 14.433191
RightToeBase 22.086544 -0.000000 -0.000000
692
root 19.877516 17.269107 -19.812380 -94.579745 80.660274 -125.229620
Spine 35.844946 -4.586165 7.938668
Head -3.834805 -2.332408 -0.958045
LeftShoulder -15.632213 -41.313587 24.173830
LeftArm -29.800424 -2.867330 -14.560648
LeftForeArm -7.088134 -0.000000 1.244885
LeftHand -12.276337 -0.000000 4.028773
LeftHandThumb1 -26.253704 0.000000 33.147579
RightShoulder -9.749940 3.600173 -17.802307
RightArm -19.297035 41.578383 20.420611
RightForeArm -30.248292 -0.000000 11.240930
RightHand -14.574904 0.000000 -5.385427
RightHandThumb1 -24.326973 -0.000000 -32.862282
LeftUpLeg -1.134884 13.482011 5.661367
LeftLeg 72.347921 -0.000000 -0.000000
LeftFoot -19.305997 14.606074 -13.538005
LeftToeBase -74.302522 -0.000000 0.000000
RightUpLeg -118.106543 16.370589 7.919050
RightLeg 111.708684 -0.000000 -0.000000
RightFoot -42.126562 -26.172648 14.377144
RightToeBase 22.142819 -0.000000 -0.000000
693
root 19.873640 17.272875 -19.809593 -94.551478 80.655360 -125.095717
Spine 35.692880 -4.607595 7.965236
Head -3.793005 -2.305972 -1.031140
LeftShoulder -15.611517 -41.385988 24.111146
LeftArm -29.788434 -2.826390 -14.477617
LeftForeArm -7.016465 -0.000000 1.255369
LeftHand -12.345745 -0.000000 3.998177
LeftHandThumb1 -26.253704 0.000000 33.147579
RightShoulder -9.758201 3.522081 -17.822046
RightArm -19.228730 41.587976 20.464494
RightForeArm -30.194323 -0.000000 11.253698
RightHand -14.670847 -0.000000 -5.399591
RightHandThumb1 -24.326973 -0.000000 -32.862282
LeftUpLeg -1.049759 13.491282 5.695244
LeftLeg 72.373478 -0.000000 -0.000000
LeftFoot -19.283262 14.611990 -13.524936
LeftToeBase -74.415568 -0.000000 0.000000
RightUpLeg -118.002444 16.388405 7.931898
RightLeg 111.696305 -0.000000 -0.000000
RightFoot -42.093545 -26.132324 14.405973
RightToeBase 22.091688 -0.000000 -0.000000
694
root 19.869475 17.276580 -19.806801 -94.543878 80.652646 -124.984654
Spine 35.531489 -4.622478 7.993642
Head -3.775297 -2.337572 -1.121323
LeftShoulder -15.647854 -41.454212 24.129717
LeftArm -29.782974 -2.712890 -14.527718
LeftForeArm -7.074591 -0.000000 1.317585
LeftHand -12.468706 0.000000 4.200501
LeftHandThumb1 -26.253704 0.000000 33.147579
RightShoulder -9.776869 3.497910 -17.825150
RightArm -19.200856 41.554587 20.434921
RightForeArm -30.087152 0.000000 11.232530
RightHand -14.625378 -0.000000 -5.340221
RightHandThumb1 -24.326973 -0.000000 -32.862282
LeftUpLeg -0.967590 13.490770 5.724810
LeftLeg 72.401012 -0.000000 -0.000000
LeftFoot -19.273784 14.623066 -13.509655
LeftToeBase -74.177929 -0.000000 0.000000
RightUpLeg -117.895881 16.396885 7.947054
RightLeg 111.673981 -0.000000 -0.000000
RightFoot -42.063988 -26.118666 14.410854
RightToeBase 22.124091 -0.000000 -0.000000
695
root 19.864437 17.279719 -19.804170 -94.548071 80.653251 -124.888679
Spine 35.355967 -4.635999 8.009486
Head -3.786480 -2.362347 -1.163016
LeftShoulder -15.697209 -41.417188 24.127556
LeftArm -29.718594 -2.620858 -14.614689
LeftForeArm -7.149284 -0.000000 1.372303
LeftHand -12.452402 -0.000000 4.212461
LeftHandThumb1 -26.253704 0.000000 33.147579
RightShoulder -9.824270 3.367060 -17.813848
RightArm -19.094885 41.811415 20.435281
RightForeArm -30.162346 -0.000000 11.198349
RightHand -14.585622 0.000000 -5.346896
RightHandThumb1 -24.326973 -0.000000 -32.862282
LeftUpLeg -0.894143 13.491432 5.748522
LeftLeg 72.436706 -0.000000 -0.000000
LeftFoot -19.261546 14.635448 -13.517147
LeftToeBase -74.167632 -0.000000 0.000000
RightUpLeg -117.799446 16.404922 7.956327
RightLeg 111.649452 -0.000000 -0.000000
RightFoot -42.015003 -26.108040 14.422505
RightToeBase 22.088897 -0.000000 -0.000000
696
root 19.858747 17.283147 -19.801610 -94.605280 80.662637 -124.818347
Spine 35.184469 -4.656127 8.013294
Head -3.741849 -2.402379 -1.213790
LeftShoulder -15.641299 -41.411382 24.075028
LeftArm -29.737162 -2.706536 -14.516148
LeftForeArm -7.014839 0.000000 1.400985
LeftHand -12.459860 -0.000000 4.179738
LeftHandThumb1 -26.253704 0.000000 33.147579
RightShoulder -9.825602 3.277077 -17.833132
RightArm -19.032211 41.872589 20.454496
RightForeArm -30.053589 -0.000000 11.161731
RightHand -14.615109 0.000000 -5.417580
RightHandThumb1 -24.326973 -0.000000 -32.862282
LeftUpLeg -0.789420 13.489022 5.771763
LeftLeg 72.461650 -0.000000 -0.000000
LeftFoot -19.250127 14.663984 -13.487933
LeftToeBase -74.238886 -0.000000 0.000000
RightUpLeg -117.673204 16.404162 7.946200
RightLeg 111.613023 -0.000000 -0.000000
RightFoot -41.972409 -26.140913 14.345391
RightToeBase 22.132706 -0.000000 -0.000000
